G75*
%MOIN*%
%OFA0B0*%
%FSLAX24Y24*%
%IPPOS*%
%LPD*%
%AMOC8*
5,1,8,0,0,1.08239X$1,22.5*
%
%ADD10C,0.0520*%
%ADD11C,0.0594*%
%ADD12OC8,0.0520*%
%ADD13C,0.0520*%
%ADD14C,0.1000*%
%ADD15OC8,0.1000*%
%ADD16C,0.0554*%
%ADD17C,0.0160*%
%ADD18C,0.0200*%
D10*
X009920Y007680D02*
X010440Y007680D01*
X010440Y008680D02*
X009920Y008680D01*
X009920Y009680D02*
X010440Y009680D01*
X010440Y010680D02*
X009920Y010680D01*
X009920Y011680D02*
X010440Y011680D01*
X010440Y012680D02*
X009920Y012680D01*
X009920Y013680D02*
X010440Y013680D01*
X010440Y014680D02*
X009920Y014680D01*
X012920Y014680D02*
X013440Y014680D01*
X013440Y013680D02*
X012920Y013680D01*
X012920Y012680D02*
X013440Y012680D01*
X013440Y011680D02*
X012920Y011680D01*
X012920Y010680D02*
X013440Y010680D01*
X013440Y009680D02*
X012920Y009680D01*
X012920Y008680D02*
X013440Y008680D01*
X013440Y007680D02*
X012920Y007680D01*
D11*
X015383Y007680D02*
X015977Y007680D01*
X015977Y006680D02*
X015383Y006680D01*
X016383Y015180D02*
X016977Y015180D01*
X016977Y016180D02*
X016383Y016180D01*
D12*
X015180Y012680D03*
X015180Y011180D03*
X015180Y009680D03*
X019180Y009680D03*
X019180Y011180D03*
X019180Y012680D03*
X008680Y010180D03*
X004680Y012680D03*
X003680Y010180D03*
D13*
X008680Y012680D03*
D14*
X007180Y003680D03*
X013180Y003680D03*
D15*
X011180Y003680D03*
X005180Y003680D03*
D16*
X008680Y007786D03*
X008680Y008574D03*
X014430Y011786D03*
X014430Y012574D03*
X008680Y014786D03*
X008680Y015574D03*
D17*
X000660Y017417D02*
X000660Y000660D01*
X024759Y000660D01*
X024759Y017417D01*
X000660Y017417D01*
X000660Y017298D02*
X024759Y017298D01*
X024759Y017140D02*
X000660Y017140D01*
X000660Y016981D02*
X024759Y016981D01*
X024759Y016823D02*
X023397Y016823D01*
X023315Y016857D02*
X023563Y016754D01*
X023754Y016563D01*
X023857Y016315D01*
X023857Y016045D01*
X023754Y015797D01*
X023563Y015606D01*
X023315Y015503D01*
X023045Y015503D01*
X022797Y015606D01*
X022606Y015797D01*
X022503Y016045D01*
X022503Y016315D01*
X022606Y016563D01*
X022797Y016754D01*
X023045Y016857D01*
X023315Y016857D01*
X022963Y016823D02*
X001897Y016823D01*
X001815Y016857D02*
X001545Y016857D01*
X001297Y016754D01*
X001106Y016563D01*
X001003Y016315D01*
X001003Y016045D01*
X001106Y015797D01*
X001297Y015606D01*
X001545Y015503D01*
X001815Y015503D01*
X002063Y015606D01*
X002254Y015797D01*
X002357Y016045D01*
X002357Y016315D01*
X002254Y016563D01*
X002063Y016754D01*
X001815Y016857D01*
X002153Y016664D02*
X016253Y016664D01*
X016284Y016677D02*
X016102Y016601D01*
X015962Y016461D01*
X015909Y016333D01*
X013662Y014086D01*
X013531Y014140D01*
X012828Y014140D01*
X012659Y014070D01*
X012530Y013941D01*
X012460Y013771D01*
X012460Y013588D01*
X012530Y013419D01*
X012659Y013290D01*
X012828Y013220D01*
X013531Y013220D01*
X013701Y013290D01*
X013827Y013416D01*
X013850Y013426D01*
X016159Y015735D01*
X016284Y015683D01*
X017076Y015683D01*
X017258Y015759D01*
X017398Y015899D01*
X017474Y016081D01*
X017474Y016279D01*
X017398Y016461D01*
X017258Y016601D01*
X017076Y016677D01*
X016284Y016677D01*
X016006Y016506D02*
X002278Y016506D01*
X002343Y016347D02*
X008923Y016347D01*
X009010Y016434D02*
X008627Y016051D01*
X008585Y016051D01*
X008410Y015978D01*
X008275Y015844D01*
X008203Y015669D01*
X008203Y015479D01*
X008275Y015303D01*
X008399Y015180D01*
X008275Y015057D01*
X008203Y014881D01*
X008203Y014691D01*
X008275Y014516D01*
X008410Y014382D01*
X008585Y014309D01*
X008627Y014309D01*
X009510Y013426D01*
X009533Y013416D01*
X009659Y013290D01*
X009828Y013220D01*
X010531Y013220D01*
X010701Y013290D01*
X010830Y013419D01*
X010900Y013588D01*
X010900Y013771D01*
X010830Y013941D01*
X010701Y014070D01*
X010531Y014140D01*
X009828Y014140D01*
X009698Y014086D01*
X009138Y014646D01*
X009157Y014691D01*
X009157Y014881D01*
X009085Y015057D01*
X008961Y015180D01*
X009085Y015303D01*
X009157Y015479D01*
X009157Y015669D01*
X009138Y015714D01*
X009180Y015756D01*
X009805Y015130D01*
X009659Y015070D01*
X009530Y014941D01*
X009460Y014771D01*
X009460Y014588D01*
X009530Y014419D01*
X009659Y014290D01*
X009828Y014220D01*
X010531Y014220D01*
X010701Y014290D01*
X010830Y014419D01*
X010900Y014588D01*
X010900Y014771D01*
X010830Y014941D01*
X010701Y015070D01*
X010531Y015140D01*
X010480Y015140D01*
X010480Y015240D01*
X010434Y015350D01*
X009434Y016350D01*
X009350Y016434D01*
X009240Y016480D01*
X009120Y016480D01*
X009010Y016434D01*
X008764Y016189D02*
X002357Y016189D01*
X002350Y016030D02*
X008535Y016030D01*
X008303Y015872D02*
X002285Y015872D01*
X002170Y015713D02*
X008221Y015713D01*
X008203Y015555D02*
X001939Y015555D01*
X001421Y015555D02*
X000660Y015555D01*
X000660Y015713D02*
X001190Y015713D01*
X001075Y015872D02*
X000660Y015872D01*
X000660Y016030D02*
X001010Y016030D01*
X001003Y016189D02*
X000660Y016189D01*
X000660Y016347D02*
X001017Y016347D01*
X001082Y016506D02*
X000660Y016506D01*
X000660Y016664D02*
X001207Y016664D01*
X001463Y016823D02*
X000660Y016823D01*
X000660Y015396D02*
X008237Y015396D01*
X008341Y015238D02*
X000660Y015238D01*
X000660Y015079D02*
X008298Y015079D01*
X008219Y014921D02*
X000660Y014921D01*
X000660Y014762D02*
X008203Y014762D01*
X008239Y014604D02*
X000660Y014604D01*
X000660Y014445D02*
X008346Y014445D01*
X008649Y014287D02*
X000660Y014287D01*
X000660Y014128D02*
X008808Y014128D01*
X008966Y013970D02*
X000660Y013970D01*
X000660Y013811D02*
X009125Y013811D01*
X009283Y013653D02*
X000660Y013653D01*
X000660Y013494D02*
X009442Y013494D01*
X009614Y013336D02*
X000660Y013336D01*
X000660Y013177D02*
X016380Y013177D01*
X016380Y013019D02*
X015492Y013019D01*
X015371Y013140D02*
X015640Y012871D01*
X015640Y012489D01*
X015480Y012329D01*
X015480Y011531D01*
X015640Y011371D01*
X015640Y010989D01*
X015371Y010720D01*
X015144Y010720D01*
X014854Y010430D01*
X014934Y010350D01*
X014934Y010350D01*
X015144Y010140D01*
X015371Y010140D01*
X015640Y009871D01*
X015640Y009564D01*
X016380Y010304D01*
X016380Y014683D01*
X016284Y014683D01*
X016102Y014759D01*
X015962Y014899D01*
X015886Y015081D01*
X015886Y015279D01*
X015962Y015461D01*
X016102Y015601D01*
X016284Y015677D01*
X017076Y015677D01*
X017258Y015601D01*
X017398Y015461D01*
X017474Y015279D01*
X017474Y015081D01*
X017398Y014899D01*
X017258Y014759D01*
X017076Y014683D01*
X016980Y014683D01*
X016980Y010120D01*
X016934Y010010D01*
X016850Y009926D01*
X015350Y008426D01*
X015240Y008380D01*
X013791Y008380D01*
X013701Y008290D01*
X013531Y008220D01*
X012828Y008220D01*
X012659Y008290D01*
X012530Y008419D01*
X012460Y008588D01*
X012460Y008771D01*
X012530Y008941D01*
X012659Y009070D01*
X012828Y009140D01*
X013531Y009140D01*
X013701Y009070D01*
X013791Y008980D01*
X015056Y008980D01*
X015296Y009220D01*
X014989Y009220D01*
X014720Y009489D01*
X014720Y009716D01*
X014556Y009880D01*
X014304Y009880D01*
X013850Y009426D01*
X013827Y009416D01*
X013701Y009290D01*
X013531Y009220D01*
X012828Y009220D01*
X012659Y009290D01*
X012530Y009419D01*
X012460Y009588D01*
X012460Y009771D01*
X012530Y009941D01*
X012659Y010070D01*
X012828Y010140D01*
X013531Y010140D01*
X013662Y010086D01*
X014010Y010434D01*
X014720Y011144D01*
X014720Y011371D01*
X014880Y011531D01*
X014880Y011705D01*
X014876Y011679D01*
X014854Y011611D01*
X014821Y011547D01*
X014779Y011488D01*
X014728Y011438D01*
X014670Y011395D01*
X014605Y011363D01*
X014537Y011340D01*
X014466Y011329D01*
X014439Y011329D01*
X014439Y011778D01*
X014421Y011778D01*
X013973Y011778D01*
X013973Y011750D01*
X013984Y011679D01*
X014006Y011611D01*
X014039Y011547D01*
X014081Y011488D01*
X014132Y011438D01*
X014190Y011395D01*
X014255Y011363D01*
X014323Y011340D01*
X014394Y011329D01*
X014421Y011329D01*
X014421Y011778D01*
X014421Y011795D01*
X013973Y011795D01*
X013973Y011822D01*
X013984Y011893D01*
X014006Y011962D01*
X014039Y012026D01*
X014081Y012084D01*
X014132Y012135D01*
X014172Y012164D01*
X014160Y012169D01*
X014025Y012303D01*
X013994Y012380D01*
X013791Y012380D01*
X013701Y012290D01*
X013531Y012220D01*
X012828Y012220D01*
X012659Y012290D01*
X012530Y012419D01*
X012460Y012588D01*
X012460Y012771D01*
X012530Y012941D01*
X012659Y013070D01*
X012828Y013140D01*
X013531Y013140D01*
X013701Y013070D01*
X013791Y012980D01*
X014122Y012980D01*
X014123Y012981D01*
X014164Y012980D01*
X014335Y013051D01*
X014525Y013051D01*
X014700Y012978D01*
X014764Y012915D01*
X014989Y013140D01*
X015371Y013140D01*
X015640Y012860D02*
X016380Y012860D01*
X016380Y012702D02*
X015640Y012702D01*
X015640Y012543D02*
X016380Y012543D01*
X016380Y012385D02*
X015535Y012385D01*
X015480Y012226D02*
X016380Y012226D01*
X016380Y012068D02*
X015480Y012068D01*
X015480Y011909D02*
X016380Y011909D01*
X016380Y011751D02*
X015480Y011751D01*
X015480Y011592D02*
X016380Y011592D01*
X016380Y011434D02*
X015577Y011434D01*
X015640Y011275D02*
X016380Y011275D01*
X016380Y011117D02*
X015640Y011117D01*
X015609Y010958D02*
X016380Y010958D01*
X016380Y010800D02*
X015450Y010800D01*
X015065Y010641D02*
X016380Y010641D01*
X016380Y010483D02*
X014907Y010483D01*
X014960Y010324D02*
X016380Y010324D01*
X016241Y010166D02*
X015119Y010166D01*
X015504Y010007D02*
X016083Y010007D01*
X015924Y009849D02*
X015640Y009849D01*
X015640Y009690D02*
X015766Y009690D01*
X016297Y009373D02*
X018865Y009373D01*
X018740Y009498D02*
X018998Y009240D01*
X019180Y009240D01*
X019362Y009240D01*
X019620Y009498D01*
X019620Y009680D01*
X019620Y009862D01*
X019362Y010120D01*
X019180Y010120D01*
X019180Y009680D01*
X019620Y009680D01*
X019180Y009680D01*
X019180Y009680D01*
X019180Y009680D01*
X019180Y009240D01*
X019180Y009680D01*
X019180Y009680D01*
X019180Y009680D01*
X018740Y009680D01*
X018740Y009862D01*
X018998Y010120D01*
X019180Y010120D01*
X019180Y009680D01*
X018740Y009680D01*
X018740Y009498D01*
X018740Y009532D02*
X016456Y009532D01*
X016614Y009690D02*
X018740Y009690D01*
X018740Y009849D02*
X016773Y009849D01*
X016931Y010007D02*
X018885Y010007D01*
X019180Y010007D02*
X019180Y010007D01*
X019180Y009849D02*
X019180Y009849D01*
X019180Y009690D02*
X019180Y009690D01*
X019180Y009532D02*
X019180Y009532D01*
X019180Y009373D02*
X019180Y009373D01*
X019495Y009373D02*
X024759Y009373D01*
X024759Y009215D02*
X016139Y009215D01*
X015980Y009056D02*
X024759Y009056D01*
X024759Y008898D02*
X015822Y008898D01*
X015663Y008739D02*
X024759Y008739D01*
X024759Y008581D02*
X015505Y008581D01*
X015341Y008422D02*
X024759Y008422D01*
X024759Y008264D02*
X013637Y008264D01*
X013616Y008105D02*
X015167Y008105D01*
X015200Y008122D02*
X015133Y008088D01*
X015073Y008044D01*
X015019Y007991D01*
X014975Y007930D01*
X014941Y007863D01*
X014918Y007792D01*
X014906Y007718D01*
X014906Y007698D01*
X015662Y007698D01*
X015662Y008157D01*
X015346Y008157D01*
X015271Y008145D01*
X015200Y008122D01*
X014987Y007947D02*
X013824Y007947D01*
X013830Y007941D02*
X013701Y008070D01*
X013531Y008140D01*
X012828Y008140D01*
X012659Y008070D01*
X012530Y007941D01*
X012460Y007771D01*
X012460Y007588D01*
X012530Y007419D01*
X012659Y007290D01*
X012828Y007220D01*
X012880Y007220D01*
X012880Y004313D01*
X012783Y004273D01*
X012587Y004077D01*
X012480Y003819D01*
X012480Y003541D01*
X012587Y003283D01*
X012783Y003087D01*
X013041Y002980D01*
X013319Y002980D01*
X013577Y003087D01*
X013773Y003283D01*
X013880Y003541D01*
X013880Y003819D01*
X013773Y004077D01*
X013637Y004213D01*
X015607Y006183D01*
X016076Y006183D01*
X016258Y006259D01*
X016398Y006399D01*
X016474Y006581D01*
X016474Y006779D01*
X016398Y006961D01*
X016258Y007101D01*
X016076Y007177D01*
X015284Y007177D01*
X015102Y007101D01*
X014962Y006961D01*
X014886Y006779D01*
X014886Y006581D01*
X014962Y006399D01*
X014968Y006392D01*
X013480Y004904D01*
X013480Y007220D01*
X013531Y007220D01*
X013701Y007290D01*
X013830Y007419D01*
X013900Y007588D01*
X013900Y007771D01*
X013830Y007941D01*
X013893Y007788D02*
X014917Y007788D01*
X014906Y007662D02*
X014906Y007642D01*
X014918Y007568D01*
X014941Y007497D01*
X014975Y007430D01*
X015019Y007369D01*
X015073Y007316D01*
X015133Y007272D01*
X015200Y007238D01*
X015271Y007215D01*
X015346Y007203D01*
X015662Y007203D01*
X015662Y007662D01*
X015698Y007662D01*
X015698Y007698D01*
X015662Y007698D01*
X015662Y007662D01*
X014906Y007662D01*
X014908Y007630D02*
X013900Y007630D01*
X013851Y007471D02*
X014954Y007471D01*
X015078Y007313D02*
X013723Y007313D01*
X013480Y007154D02*
X015229Y007154D01*
X014996Y006996D02*
X013480Y006996D01*
X013480Y006837D02*
X014910Y006837D01*
X014886Y006679D02*
X013480Y006679D01*
X013480Y006520D02*
X014912Y006520D01*
X014937Y006362D02*
X013480Y006362D01*
X013480Y006203D02*
X014779Y006203D01*
X014620Y006045D02*
X013480Y006045D01*
X013480Y005886D02*
X014462Y005886D01*
X014303Y005728D02*
X013480Y005728D01*
X013480Y005569D02*
X014145Y005569D01*
X013986Y005411D02*
X013480Y005411D01*
X013480Y005252D02*
X013828Y005252D01*
X013669Y005094D02*
X013480Y005094D01*
X013480Y004935D02*
X013511Y004935D01*
X014042Y004618D02*
X024759Y004618D01*
X024759Y004460D02*
X013884Y004460D01*
X013725Y004301D02*
X024759Y004301D01*
X024759Y004143D02*
X013707Y004143D01*
X013812Y003984D02*
X024759Y003984D01*
X024759Y003826D02*
X013877Y003826D01*
X013880Y003667D02*
X024759Y003667D01*
X024759Y003509D02*
X013867Y003509D01*
X013801Y003350D02*
X024759Y003350D01*
X024759Y003192D02*
X013681Y003192D01*
X013447Y003033D02*
X024759Y003033D01*
X024759Y002875D02*
X000660Y002875D01*
X000660Y003033D02*
X004865Y003033D01*
X004898Y003000D02*
X005160Y003000D01*
X005160Y003660D01*
X005200Y003660D01*
X005200Y003700D01*
X005860Y003700D01*
X005860Y003962D01*
X005462Y004360D01*
X005200Y004360D01*
X005200Y003700D01*
X005160Y003700D01*
X005160Y004360D01*
X004898Y004360D01*
X004500Y003962D01*
X004500Y003700D01*
X005160Y003700D01*
X005160Y003660D01*
X004500Y003660D01*
X004500Y003398D01*
X004898Y003000D01*
X005160Y003033D02*
X005200Y003033D01*
X005200Y003000D02*
X005462Y003000D01*
X005860Y003398D01*
X005860Y003660D01*
X005200Y003660D01*
X005200Y003000D01*
X005200Y003192D02*
X005160Y003192D01*
X005160Y003350D02*
X005200Y003350D01*
X005200Y003509D02*
X005160Y003509D01*
X005160Y003667D02*
X000660Y003667D01*
X000660Y003509D02*
X004500Y003509D01*
X004548Y003350D02*
X000660Y003350D01*
X000660Y003192D02*
X004707Y003192D01*
X005200Y003667D02*
X006480Y003667D01*
X006480Y003541D02*
X006587Y003283D01*
X006783Y003087D01*
X007041Y002980D01*
X007319Y002980D01*
X007577Y003087D01*
X007773Y003283D01*
X007813Y003380D01*
X010490Y003380D01*
X010890Y002980D01*
X011470Y002980D01*
X011880Y003390D01*
X011880Y003970D01*
X011470Y004380D01*
X010890Y004380D01*
X010490Y003980D01*
X007813Y003980D01*
X007773Y004077D01*
X007577Y004273D01*
X007319Y004380D01*
X007041Y004380D01*
X006783Y004273D01*
X006587Y004077D01*
X006480Y003819D01*
X006480Y003541D01*
X006493Y003509D02*
X005860Y003509D01*
X005812Y003350D02*
X006559Y003350D01*
X006679Y003192D02*
X005653Y003192D01*
X005495Y003033D02*
X006913Y003033D01*
X007447Y003033D02*
X010837Y003033D01*
X010679Y003192D02*
X007681Y003192D01*
X007801Y003350D02*
X010520Y003350D01*
X010494Y003984D02*
X007812Y003984D01*
X007707Y004143D02*
X010653Y004143D01*
X010811Y004301D02*
X007510Y004301D01*
X006850Y004301D02*
X005521Y004301D01*
X005679Y004143D02*
X006653Y004143D01*
X006548Y003984D02*
X005838Y003984D01*
X005860Y003826D02*
X006483Y003826D01*
X005200Y003826D02*
X005160Y003826D01*
X005160Y003984D02*
X005200Y003984D01*
X005200Y004143D02*
X005160Y004143D01*
X005160Y004301D02*
X005200Y004301D01*
X004839Y004301D02*
X000660Y004301D01*
X000660Y004143D02*
X004681Y004143D01*
X004522Y003984D02*
X000660Y003984D01*
X000660Y003826D02*
X004500Y003826D01*
X002254Y002063D02*
X002063Y002254D01*
X001815Y002357D01*
X001545Y002357D01*
X001297Y002254D01*
X001106Y002063D01*
X001003Y001815D01*
X001003Y001545D01*
X001106Y001297D01*
X001297Y001106D01*
X001545Y001003D01*
X001815Y001003D01*
X002063Y001106D01*
X002254Y001297D01*
X002357Y001545D01*
X002357Y001815D01*
X002254Y002063D01*
X002235Y002082D02*
X023125Y002082D01*
X023106Y002063D02*
X023003Y001815D01*
X023003Y001545D01*
X023106Y001297D01*
X023297Y001106D01*
X023545Y001003D01*
X023815Y001003D01*
X024063Y001106D01*
X024254Y001297D01*
X024357Y001545D01*
X024357Y001815D01*
X024254Y002063D01*
X024063Y002254D01*
X023815Y002357D01*
X023545Y002357D01*
X023297Y002254D01*
X023106Y002063D01*
X023048Y001924D02*
X002312Y001924D01*
X002357Y001765D02*
X023003Y001765D01*
X023003Y001607D02*
X002357Y001607D01*
X002317Y001448D02*
X023043Y001448D01*
X023113Y001290D02*
X002247Y001290D01*
X002088Y001131D02*
X023272Y001131D01*
X024088Y001131D02*
X024759Y001131D01*
X024759Y000973D02*
X000660Y000973D01*
X000660Y001131D02*
X001272Y001131D01*
X001113Y001290D02*
X000660Y001290D01*
X000660Y001448D02*
X001043Y001448D01*
X001003Y001607D02*
X000660Y001607D01*
X000660Y001765D02*
X001003Y001765D01*
X001048Y001924D02*
X000660Y001924D01*
X000660Y002082D02*
X001125Y002082D01*
X001283Y002241D02*
X000660Y002241D01*
X000660Y002399D02*
X024759Y002399D01*
X024759Y002241D02*
X024077Y002241D01*
X024235Y002082D02*
X024759Y002082D01*
X024759Y001924D02*
X024312Y001924D01*
X024357Y001765D02*
X024759Y001765D01*
X024759Y001607D02*
X024357Y001607D01*
X024317Y001448D02*
X024759Y001448D01*
X024759Y001290D02*
X024247Y001290D01*
X024759Y000814D02*
X000660Y000814D01*
X002077Y002241D02*
X023283Y002241D01*
X024759Y002558D02*
X000660Y002558D01*
X000660Y002716D02*
X024759Y002716D01*
X024759Y004777D02*
X014201Y004777D01*
X014359Y004935D02*
X024759Y004935D01*
X024759Y005094D02*
X014518Y005094D01*
X014676Y005252D02*
X024759Y005252D01*
X024759Y005411D02*
X014835Y005411D01*
X014993Y005569D02*
X024759Y005569D01*
X024759Y005728D02*
X015152Y005728D01*
X015310Y005886D02*
X024759Y005886D01*
X024759Y006045D02*
X015469Y006045D01*
X016124Y006203D02*
X024759Y006203D01*
X024759Y006362D02*
X016361Y006362D01*
X016448Y006520D02*
X024759Y006520D01*
X024759Y006679D02*
X016474Y006679D01*
X016450Y006837D02*
X024759Y006837D01*
X024759Y006996D02*
X016364Y006996D01*
X016131Y007154D02*
X024759Y007154D01*
X024759Y007313D02*
X016282Y007313D01*
X016287Y007316D02*
X016341Y007369D01*
X016385Y007430D01*
X016419Y007497D01*
X016442Y007568D01*
X016454Y007642D01*
X016454Y007662D01*
X015698Y007662D01*
X015698Y007203D01*
X016014Y007203D01*
X016089Y007215D01*
X016160Y007238D01*
X016227Y007272D01*
X016287Y007316D01*
X016406Y007471D02*
X024759Y007471D01*
X024759Y007630D02*
X016452Y007630D01*
X016454Y007698D02*
X016454Y007718D01*
X016442Y007792D01*
X016419Y007863D01*
X016385Y007930D01*
X016341Y007991D01*
X016287Y008044D01*
X016227Y008088D01*
X016160Y008122D01*
X016089Y008145D01*
X016014Y008157D01*
X015698Y008157D01*
X015698Y007698D01*
X016454Y007698D01*
X016443Y007788D02*
X024759Y007788D01*
X024759Y007947D02*
X016373Y007947D01*
X016193Y008105D02*
X024759Y008105D01*
X024759Y009532D02*
X019620Y009532D01*
X019620Y009690D02*
X024759Y009690D01*
X024759Y009849D02*
X019620Y009849D01*
X019475Y010007D02*
X024759Y010007D01*
X024759Y010166D02*
X016980Y010166D01*
X016980Y010324D02*
X024759Y010324D01*
X024759Y010483D02*
X016980Y010483D01*
X016980Y010641D02*
X024759Y010641D01*
X024759Y010800D02*
X019422Y010800D01*
X019362Y010740D02*
X019620Y010998D01*
X019620Y011180D01*
X019620Y011362D01*
X019362Y011620D01*
X019180Y011620D01*
X019180Y011180D01*
X019620Y011180D01*
X019180Y011180D01*
X019180Y011180D01*
X019180Y011180D01*
X019180Y010740D01*
X019362Y010740D01*
X019180Y010740D02*
X019180Y011180D01*
X019180Y011180D01*
X019180Y011180D01*
X018740Y011180D01*
X018740Y011362D01*
X018998Y011620D01*
X019180Y011620D01*
X019180Y011180D01*
X018740Y011180D01*
X018740Y010998D01*
X018998Y010740D01*
X019180Y010740D01*
X019180Y010800D02*
X019180Y010800D01*
X019180Y010958D02*
X019180Y010958D01*
X019180Y011117D02*
X019180Y011117D01*
X019180Y011275D02*
X019180Y011275D01*
X019180Y011434D02*
X019180Y011434D01*
X019180Y011592D02*
X019180Y011592D01*
X019390Y011592D02*
X024759Y011592D01*
X024759Y011434D02*
X019549Y011434D01*
X019620Y011275D02*
X024759Y011275D01*
X024759Y011117D02*
X019620Y011117D01*
X019580Y010958D02*
X024759Y010958D01*
X024759Y011751D02*
X016980Y011751D01*
X016980Y011909D02*
X024759Y011909D01*
X024759Y012068D02*
X016980Y012068D01*
X016980Y012226D02*
X024759Y012226D01*
X024759Y012385D02*
X019507Y012385D01*
X019620Y012498D02*
X019362Y012240D01*
X019180Y012240D01*
X019180Y012680D01*
X019620Y012680D01*
X019620Y012862D01*
X019362Y013120D01*
X019180Y013120D01*
X019180Y012680D01*
X019180Y012680D01*
X019180Y012680D01*
X019620Y012680D01*
X019620Y012498D01*
X019620Y012543D02*
X024759Y012543D01*
X024759Y012702D02*
X019620Y012702D01*
X019620Y012860D02*
X024759Y012860D01*
X024759Y013019D02*
X019464Y013019D01*
X019180Y013019D02*
X019180Y013019D01*
X019180Y013120D02*
X018998Y013120D01*
X018740Y012862D01*
X018740Y012680D01*
X019180Y012680D01*
X019180Y012680D01*
X019180Y012680D01*
X019180Y013120D01*
X019180Y012860D02*
X019180Y012860D01*
X019180Y012702D02*
X019180Y012702D01*
X019180Y012680D02*
X018740Y012680D01*
X018740Y012498D01*
X018998Y012240D01*
X019180Y012240D01*
X019180Y012680D01*
X019180Y012543D02*
X019180Y012543D01*
X019180Y012385D02*
X019180Y012385D01*
X018853Y012385D02*
X016980Y012385D01*
X016980Y012543D02*
X018740Y012543D01*
X018740Y012702D02*
X016980Y012702D01*
X016980Y012860D02*
X018740Y012860D01*
X018896Y013019D02*
X016980Y013019D01*
X016980Y013177D02*
X024759Y013177D01*
X024759Y013336D02*
X016980Y013336D01*
X016980Y013494D02*
X024759Y013494D01*
X024759Y013653D02*
X016980Y013653D01*
X016980Y013811D02*
X024759Y013811D01*
X024759Y013970D02*
X016980Y013970D01*
X016980Y014128D02*
X024759Y014128D01*
X024759Y014287D02*
X016980Y014287D01*
X016980Y014445D02*
X024759Y014445D01*
X024759Y014604D02*
X016980Y014604D01*
X017262Y014762D02*
X024759Y014762D01*
X024759Y014921D02*
X017407Y014921D01*
X017473Y015079D02*
X024759Y015079D01*
X024759Y015238D02*
X017474Y015238D01*
X017425Y015396D02*
X024759Y015396D01*
X024759Y015555D02*
X023439Y015555D01*
X023670Y015713D02*
X024759Y015713D01*
X024759Y015872D02*
X023785Y015872D01*
X023850Y016030D02*
X024759Y016030D01*
X024759Y016189D02*
X023857Y016189D01*
X023843Y016347D02*
X024759Y016347D01*
X024759Y016506D02*
X023778Y016506D01*
X023653Y016664D02*
X024759Y016664D01*
X022921Y015555D02*
X017305Y015555D01*
X017148Y015713D02*
X022690Y015713D01*
X022575Y015872D02*
X017371Y015872D01*
X017453Y016030D02*
X022510Y016030D01*
X022503Y016189D02*
X017474Y016189D01*
X017445Y016347D02*
X022517Y016347D01*
X022582Y016506D02*
X017354Y016506D01*
X017107Y016664D02*
X022707Y016664D01*
X016380Y014604D02*
X015028Y014604D01*
X015186Y014762D02*
X016098Y014762D01*
X015953Y014921D02*
X015345Y014921D01*
X015503Y015079D02*
X015887Y015079D01*
X015886Y015238D02*
X015662Y015238D01*
X015820Y015396D02*
X015935Y015396D01*
X015979Y015555D02*
X016055Y015555D01*
X016137Y015713D02*
X016212Y015713D01*
X015606Y016030D02*
X009754Y016030D01*
X009596Y016189D02*
X015764Y016189D01*
X015915Y016347D02*
X009437Y016347D01*
X009913Y015872D02*
X015447Y015872D01*
X015289Y015713D02*
X010071Y015713D01*
X010230Y015555D02*
X015130Y015555D01*
X014972Y015396D02*
X010388Y015396D01*
X010480Y015238D02*
X014813Y015238D01*
X014655Y015079D02*
X013626Y015079D01*
X013609Y015088D02*
X013543Y015109D01*
X013475Y015120D01*
X013180Y015120D01*
X013180Y014680D01*
X013180Y014680D01*
X013880Y014680D01*
X013880Y014715D01*
X013869Y014783D01*
X013848Y014849D01*
X013816Y014911D01*
X013776Y014967D01*
X013727Y015016D01*
X013671Y015056D01*
X013609Y015088D01*
X013809Y014921D02*
X014496Y014921D01*
X014338Y014762D02*
X013872Y014762D01*
X013880Y014680D02*
X013180Y014680D01*
X013180Y014680D01*
X013180Y014240D01*
X013475Y014240D01*
X013543Y014251D01*
X013609Y014272D01*
X013671Y014304D01*
X013727Y014344D01*
X013776Y014393D01*
X013816Y014449D01*
X013848Y014511D01*
X013869Y014577D01*
X013880Y014645D01*
X013880Y014680D01*
X013873Y014604D02*
X014179Y014604D01*
X014021Y014445D02*
X013813Y014445D01*
X013862Y014287D02*
X013637Y014287D01*
X013704Y014128D02*
X013560Y014128D01*
X013180Y014240D02*
X013180Y014680D01*
X013180Y014680D01*
X013180Y014680D01*
X012480Y014680D01*
X012480Y014715D01*
X012491Y014783D01*
X012512Y014849D01*
X012544Y014911D01*
X012584Y014967D01*
X012633Y015016D01*
X012689Y015056D01*
X012751Y015088D01*
X012817Y015109D01*
X012885Y015120D01*
X013180Y015120D01*
X013180Y014680D01*
X012480Y014680D01*
X012480Y014645D01*
X012491Y014577D01*
X012512Y014511D01*
X012544Y014449D01*
X012584Y014393D01*
X012633Y014344D01*
X012689Y014304D01*
X012751Y014272D01*
X012817Y014251D01*
X012885Y014240D01*
X013180Y014240D01*
X013180Y014287D02*
X013180Y014287D01*
X013180Y014445D02*
X013180Y014445D01*
X013180Y014604D02*
X013180Y014604D01*
X013180Y014762D02*
X013180Y014762D01*
X013180Y014921D02*
X013180Y014921D01*
X013180Y015079D02*
X013180Y015079D01*
X012734Y015079D02*
X010679Y015079D01*
X010838Y014921D02*
X012551Y014921D01*
X012488Y014762D02*
X010900Y014762D01*
X010900Y014604D02*
X012487Y014604D01*
X012547Y014445D02*
X010841Y014445D01*
X010692Y014287D02*
X012723Y014287D01*
X012800Y014128D02*
X010560Y014128D01*
X010801Y013970D02*
X012559Y013970D01*
X012476Y013811D02*
X010884Y013811D01*
X010900Y013653D02*
X012460Y013653D01*
X012499Y013494D02*
X010861Y013494D01*
X010746Y013336D02*
X012614Y013336D01*
X012608Y013019D02*
X010752Y013019D01*
X010701Y013070D02*
X010830Y012941D01*
X010900Y012771D01*
X010900Y012588D01*
X010830Y012419D01*
X010701Y012290D01*
X010531Y012220D01*
X009828Y012220D01*
X009698Y012274D01*
X008980Y011556D01*
X008980Y010531D01*
X009140Y010371D01*
X009140Y009989D01*
X008871Y009720D01*
X008489Y009720D01*
X008220Y009989D01*
X008220Y010371D01*
X008380Y010531D01*
X008380Y012329D01*
X008290Y012419D01*
X008220Y012588D01*
X008220Y012771D01*
X008290Y012941D01*
X008419Y013070D01*
X008588Y013140D01*
X008771Y013140D01*
X008941Y013070D01*
X009070Y012941D01*
X009140Y012771D01*
X009140Y012588D01*
X009123Y012547D01*
X009510Y012934D01*
X009533Y012944D01*
X009659Y013070D01*
X009828Y013140D01*
X010531Y013140D01*
X010701Y013070D01*
X010863Y012860D02*
X012497Y012860D01*
X012460Y012702D02*
X010900Y012702D01*
X010881Y012543D02*
X012479Y012543D01*
X012565Y012385D02*
X010795Y012385D01*
X010546Y012226D02*
X012814Y012226D01*
X012817Y012109D02*
X012751Y012088D01*
X012689Y012056D01*
X012633Y012016D01*
X012584Y011967D01*
X012544Y011911D01*
X012512Y011849D01*
X012491Y011783D01*
X012480Y011715D01*
X012480Y011680D01*
X013180Y011680D01*
X013180Y011680D01*
X013180Y012120D01*
X013475Y012120D01*
X013543Y012109D01*
X013609Y012088D01*
X013671Y012056D01*
X013727Y012016D01*
X013776Y011967D01*
X013816Y011911D01*
X013848Y011849D01*
X013869Y011783D01*
X013880Y011715D01*
X013880Y011680D01*
X013180Y011680D01*
X013180Y011680D01*
X013180Y011240D01*
X013475Y011240D01*
X013543Y011251D01*
X013609Y011272D01*
X013671Y011304D01*
X013727Y011344D01*
X013776Y011393D01*
X013816Y011449D01*
X013848Y011511D01*
X013869Y011577D01*
X013880Y011645D01*
X013880Y011680D01*
X013180Y011680D01*
X013180Y011680D01*
X013180Y011680D01*
X013180Y012120D01*
X012885Y012120D01*
X012817Y012109D01*
X012711Y012068D02*
X010649Y012068D01*
X010671Y012056D02*
X010609Y012088D01*
X010543Y012109D01*
X010475Y012120D01*
X010180Y012120D01*
X010180Y011680D01*
X010180Y011680D01*
X010880Y011680D01*
X010880Y011715D01*
X010869Y011783D01*
X010848Y011849D01*
X010816Y011911D01*
X010776Y011967D01*
X010727Y012016D01*
X010671Y012056D01*
X010817Y011909D02*
X012543Y011909D01*
X012486Y011751D02*
X010874Y011751D01*
X010880Y011680D02*
X010180Y011680D01*
X010180Y011680D01*
X010180Y011240D01*
X010475Y011240D01*
X010543Y011251D01*
X010609Y011272D01*
X010671Y011304D01*
X010727Y011344D01*
X010776Y011393D01*
X010816Y011449D01*
X010848Y011511D01*
X010869Y011577D01*
X010880Y011645D01*
X010880Y011680D01*
X010872Y011592D02*
X012488Y011592D01*
X012491Y011577D02*
X012480Y011645D01*
X012480Y011680D01*
X013180Y011680D01*
X013180Y011240D01*
X012885Y011240D01*
X012817Y011251D01*
X012751Y011272D01*
X012689Y011304D01*
X012633Y011344D01*
X012584Y011393D01*
X012544Y011449D01*
X012512Y011511D01*
X012491Y011577D01*
X012555Y011434D02*
X010805Y011434D01*
X010614Y011275D02*
X012746Y011275D01*
X012817Y011109D02*
X012751Y011088D01*
X012689Y011056D01*
X012633Y011016D01*
X012584Y010967D01*
X012544Y010911D01*
X012512Y010849D01*
X012491Y010783D01*
X012480Y010715D01*
X012480Y010680D01*
X013180Y010680D01*
X013180Y010680D01*
X013180Y011120D01*
X013475Y011120D01*
X013543Y011109D01*
X013609Y011088D01*
X013671Y011056D01*
X013727Y011016D01*
X013776Y010967D01*
X013816Y010911D01*
X013848Y010849D01*
X013869Y010783D01*
X013880Y010715D01*
X013880Y010680D01*
X013180Y010680D01*
X013180Y010680D01*
X013180Y010240D01*
X013475Y010240D01*
X013543Y010251D01*
X013609Y010272D01*
X013671Y010304D01*
X013727Y010344D01*
X013776Y010393D01*
X013816Y010449D01*
X013848Y010511D01*
X013869Y010577D01*
X013880Y010645D01*
X013880Y010680D01*
X013180Y010680D01*
X013180Y010680D01*
X013180Y010680D01*
X013180Y011120D01*
X012885Y011120D01*
X012817Y011109D01*
X012863Y011117D02*
X010497Y011117D01*
X010475Y011120D02*
X010180Y011120D01*
X010180Y010680D01*
X010180Y010680D01*
X010880Y010680D01*
X010880Y010715D01*
X010869Y010783D01*
X010848Y010849D01*
X010816Y010911D01*
X010776Y010967D01*
X010727Y011016D01*
X010671Y011056D01*
X010609Y011088D01*
X010543Y011109D01*
X010475Y011120D01*
X010180Y011120D02*
X009885Y011120D01*
X009817Y011109D01*
X009751Y011088D01*
X009689Y011056D01*
X009633Y011016D01*
X009584Y010967D01*
X009544Y010911D01*
X009512Y010849D01*
X009491Y010783D01*
X009480Y010715D01*
X009480Y010680D01*
X010180Y010680D01*
X010180Y010680D01*
X010180Y010240D01*
X010475Y010240D01*
X010543Y010251D01*
X010609Y010272D01*
X010671Y010304D01*
X010727Y010344D01*
X010776Y010393D01*
X010816Y010449D01*
X010848Y010511D01*
X010869Y010577D01*
X010880Y010645D01*
X010880Y010680D01*
X010180Y010680D01*
X010180Y010680D01*
X010180Y010680D01*
X010180Y011120D01*
X010180Y011117D02*
X010180Y011117D01*
X010180Y011240D02*
X010180Y011680D01*
X010180Y011680D01*
X010180Y011680D01*
X009480Y011680D01*
X009480Y011715D01*
X009491Y011783D01*
X009512Y011849D01*
X009544Y011911D01*
X009584Y011967D01*
X009633Y012016D01*
X009689Y012056D01*
X009751Y012088D01*
X009817Y012109D01*
X009885Y012120D01*
X010180Y012120D01*
X010180Y011680D01*
X009480Y011680D01*
X009480Y011645D01*
X009491Y011577D01*
X009512Y011511D01*
X009544Y011449D01*
X009584Y011393D01*
X009633Y011344D01*
X009689Y011304D01*
X009751Y011272D01*
X009817Y011251D01*
X009885Y011240D01*
X010180Y011240D01*
X010180Y011275D02*
X010180Y011275D01*
X010180Y011434D02*
X010180Y011434D01*
X010180Y011592D02*
X010180Y011592D01*
X010180Y011751D02*
X010180Y011751D01*
X010180Y011909D02*
X010180Y011909D01*
X010180Y012068D02*
X010180Y012068D01*
X009814Y012226D02*
X009650Y012226D01*
X009711Y012068D02*
X009492Y012068D01*
X009543Y011909D02*
X009333Y011909D01*
X009486Y011751D02*
X009175Y011751D01*
X009016Y011592D02*
X009488Y011592D01*
X009555Y011434D02*
X008980Y011434D01*
X008980Y011275D02*
X009746Y011275D01*
X009863Y011117D02*
X008980Y011117D01*
X008980Y010958D02*
X009578Y010958D01*
X009496Y010800D02*
X008980Y010800D01*
X008980Y010641D02*
X009481Y010641D01*
X009480Y010645D02*
X009491Y010577D01*
X009512Y010511D01*
X009544Y010449D01*
X009584Y010393D01*
X009633Y010344D01*
X009689Y010304D01*
X009751Y010272D01*
X009817Y010251D01*
X009885Y010240D01*
X010180Y010240D01*
X010180Y010680D01*
X009480Y010680D01*
X009480Y010645D01*
X009527Y010483D02*
X009028Y010483D01*
X009140Y010324D02*
X009661Y010324D01*
X009828Y010140D02*
X009659Y010070D01*
X009530Y009941D01*
X009460Y009771D01*
X009460Y009588D01*
X009530Y009419D01*
X009659Y009290D01*
X009828Y009220D01*
X010531Y009220D01*
X010701Y009290D01*
X010830Y009419D01*
X010900Y009588D01*
X010900Y009771D01*
X010830Y009941D01*
X010701Y010070D01*
X010531Y010140D01*
X009828Y010140D01*
X009596Y010007D02*
X009140Y010007D01*
X009140Y010166D02*
X013741Y010166D01*
X013699Y010324D02*
X013900Y010324D01*
X013833Y010483D02*
X014058Y010483D01*
X014217Y010641D02*
X013879Y010641D01*
X013864Y010800D02*
X014375Y010800D01*
X014534Y010958D02*
X013782Y010958D01*
X013497Y011117D02*
X014692Y011117D01*
X014720Y011275D02*
X013614Y011275D01*
X013805Y011434D02*
X014138Y011434D01*
X014016Y011592D02*
X013872Y011592D01*
X013874Y011751D02*
X013973Y011751D01*
X013989Y011909D02*
X013817Y011909D01*
X013649Y012068D02*
X014069Y012068D01*
X014103Y012226D02*
X013546Y012226D01*
X013180Y012068D02*
X013180Y012068D01*
X013180Y011909D02*
X013180Y011909D01*
X013180Y011751D02*
X013180Y011751D01*
X013180Y011592D02*
X013180Y011592D01*
X013180Y011434D02*
X013180Y011434D01*
X013180Y011275D02*
X013180Y011275D01*
X013180Y011117D02*
X013180Y011117D01*
X013180Y010958D02*
X013180Y010958D01*
X013180Y010800D02*
X013180Y010800D01*
X013180Y010680D02*
X012480Y010680D01*
X012480Y010645D01*
X012491Y010577D01*
X012512Y010511D01*
X012544Y010449D01*
X012584Y010393D01*
X012633Y010344D01*
X012689Y010304D01*
X012751Y010272D01*
X012817Y010251D01*
X012885Y010240D01*
X013180Y010240D01*
X013180Y010680D01*
X013180Y010641D02*
X013180Y010641D01*
X013180Y010483D02*
X013180Y010483D01*
X013180Y010324D02*
X013180Y010324D01*
X012661Y010324D02*
X010699Y010324D01*
X010833Y010483D02*
X012527Y010483D01*
X012481Y010641D02*
X010879Y010641D01*
X010864Y010800D02*
X012496Y010800D01*
X012578Y010958D02*
X010782Y010958D01*
X010180Y010958D02*
X010180Y010958D01*
X010180Y010800D02*
X010180Y010800D01*
X010180Y010641D02*
X010180Y010641D01*
X010180Y010483D02*
X010180Y010483D01*
X010180Y010324D02*
X010180Y010324D01*
X010764Y010007D02*
X012596Y010007D01*
X012492Y009849D02*
X010868Y009849D01*
X010900Y009690D02*
X012460Y009690D01*
X012484Y009532D02*
X010876Y009532D01*
X010784Y009373D02*
X012576Y009373D01*
X012645Y009056D02*
X010715Y009056D01*
X010701Y009070D02*
X010531Y009140D01*
X009828Y009140D01*
X009698Y009086D01*
X009434Y009350D01*
X009350Y009434D01*
X009240Y009480D01*
X009120Y009480D01*
X009010Y009434D01*
X008627Y009051D01*
X008585Y009051D01*
X008410Y008978D01*
X008275Y008844D01*
X008203Y008669D01*
X008203Y008479D01*
X008275Y008303D01*
X008399Y008180D01*
X008275Y008057D01*
X008203Y007881D01*
X008203Y007691D01*
X008275Y007516D01*
X008410Y007382D01*
X008585Y007309D01*
X008627Y007309D01*
X009010Y006926D01*
X009120Y006880D01*
X009240Y006880D01*
X009350Y006926D01*
X009434Y007010D01*
X009698Y007274D01*
X009828Y007220D01*
X010531Y007220D01*
X010701Y007290D01*
X010830Y007419D01*
X010900Y007588D01*
X010900Y007771D01*
X010830Y007941D01*
X010701Y008070D01*
X010531Y008140D01*
X009828Y008140D01*
X009659Y008070D01*
X009533Y007944D01*
X009510Y007934D01*
X009180Y007604D01*
X009138Y007646D01*
X009157Y007691D01*
X009157Y007881D01*
X009085Y008057D01*
X008961Y008180D01*
X009085Y008303D01*
X009157Y008479D01*
X009157Y008669D01*
X009138Y008714D01*
X009180Y008756D01*
X009510Y008426D01*
X009533Y008416D01*
X009659Y008290D01*
X009828Y008220D01*
X010531Y008220D01*
X010701Y008290D01*
X010830Y008419D01*
X010900Y008588D01*
X010900Y008771D01*
X010830Y008941D01*
X010701Y009070D01*
X010848Y008898D02*
X012512Y008898D01*
X012460Y008739D02*
X010900Y008739D01*
X010897Y008581D02*
X012463Y008581D01*
X012529Y008422D02*
X010831Y008422D01*
X010637Y008264D02*
X012723Y008264D01*
X012744Y008105D02*
X010616Y008105D01*
X010824Y007947D02*
X012536Y007947D01*
X012467Y007788D02*
X010893Y007788D01*
X010900Y007630D02*
X012460Y007630D01*
X012509Y007471D02*
X010851Y007471D01*
X010723Y007313D02*
X012637Y007313D01*
X012880Y007154D02*
X009578Y007154D01*
X009420Y006996D02*
X012880Y006996D01*
X012880Y006837D02*
X000660Y006837D01*
X000660Y006679D02*
X012880Y006679D01*
X012880Y006520D02*
X000660Y006520D01*
X000660Y006362D02*
X012880Y006362D01*
X012880Y006203D02*
X000660Y006203D01*
X000660Y006045D02*
X012880Y006045D01*
X012880Y005886D02*
X000660Y005886D01*
X000660Y005728D02*
X012880Y005728D01*
X012880Y005569D02*
X000660Y005569D01*
X000660Y005411D02*
X012880Y005411D01*
X012880Y005252D02*
X000660Y005252D01*
X000660Y005094D02*
X012880Y005094D01*
X012880Y004935D02*
X000660Y004935D01*
X000660Y004777D02*
X012880Y004777D01*
X012880Y004618D02*
X000660Y004618D01*
X000660Y004460D02*
X012880Y004460D01*
X012850Y004301D02*
X011549Y004301D01*
X011707Y004143D02*
X012653Y004143D01*
X012548Y003984D02*
X011866Y003984D01*
X011880Y003826D02*
X012483Y003826D01*
X012480Y003667D02*
X011880Y003667D01*
X011880Y003509D02*
X012493Y003509D01*
X012559Y003350D02*
X011840Y003350D01*
X011681Y003192D02*
X012679Y003192D01*
X012913Y003033D02*
X011523Y003033D01*
X008940Y006996D02*
X000660Y006996D01*
X000660Y007154D02*
X008782Y007154D01*
X008577Y007313D02*
X000660Y007313D01*
X000660Y007471D02*
X008320Y007471D01*
X008228Y007630D02*
X000660Y007630D01*
X000660Y007788D02*
X008203Y007788D01*
X008230Y007947D02*
X000660Y007947D01*
X000660Y008105D02*
X008324Y008105D01*
X008315Y008264D02*
X000660Y008264D01*
X000660Y008422D02*
X008226Y008422D01*
X008203Y008581D02*
X000660Y008581D01*
X000660Y008739D02*
X008232Y008739D01*
X008329Y008898D02*
X000660Y008898D01*
X000660Y009056D02*
X008632Y009056D01*
X008790Y009215D02*
X000660Y009215D01*
X000660Y009373D02*
X008949Y009373D01*
X009411Y009373D02*
X009576Y009373D01*
X009570Y009215D02*
X015290Y009215D01*
X015132Y009056D02*
X013715Y009056D01*
X013784Y009373D02*
X014836Y009373D01*
X014720Y009532D02*
X013956Y009532D01*
X014114Y009690D02*
X014720Y009690D01*
X014587Y009849D02*
X014273Y009849D01*
X014421Y011434D02*
X014439Y011434D01*
X014439Y011592D02*
X014421Y011592D01*
X014421Y011751D02*
X014439Y011751D01*
X014722Y011434D02*
X014783Y011434D01*
X014844Y011592D02*
X014880Y011592D01*
X014868Y013019D02*
X014603Y013019D01*
X014257Y013019D02*
X013752Y013019D01*
X013746Y013336D02*
X016380Y013336D01*
X016380Y013494D02*
X013918Y013494D01*
X014077Y013653D02*
X016380Y013653D01*
X016380Y013811D02*
X014235Y013811D01*
X014394Y013970D02*
X016380Y013970D01*
X016380Y014128D02*
X014552Y014128D01*
X014711Y014287D02*
X016380Y014287D01*
X016380Y014445D02*
X014869Y014445D01*
X016980Y011592D02*
X018970Y011592D01*
X018811Y011434D02*
X016980Y011434D01*
X016980Y011275D02*
X018740Y011275D01*
X018740Y011117D02*
X016980Y011117D01*
X016980Y010958D02*
X018780Y010958D01*
X018938Y010800D02*
X016980Y010800D01*
X015698Y008105D02*
X015662Y008105D01*
X015662Y007947D02*
X015698Y007947D01*
X015698Y007788D02*
X015662Y007788D01*
X015662Y007630D02*
X015698Y007630D01*
X015698Y007471D02*
X015662Y007471D01*
X015662Y007313D02*
X015698Y007313D01*
X009744Y008105D02*
X009036Y008105D01*
X009045Y008264D02*
X009723Y008264D01*
X009519Y008422D02*
X009134Y008422D01*
X009157Y008581D02*
X009355Y008581D01*
X009197Y008739D02*
X009163Y008739D01*
X009484Y009532D02*
X000660Y009532D01*
X000660Y009690D02*
X009460Y009690D01*
X009492Y009849D02*
X008999Y009849D01*
X008361Y009849D02*
X003971Y009849D01*
X003862Y009740D02*
X003680Y009740D01*
X003680Y010180D01*
X004120Y010180D01*
X004120Y010362D01*
X003862Y010620D01*
X003680Y010620D01*
X003680Y010180D01*
X003680Y010180D01*
X003680Y010180D01*
X004120Y010180D01*
X004120Y009998D01*
X003862Y009740D01*
X003680Y009740D02*
X003680Y010180D01*
X003680Y010180D01*
X003680Y010180D01*
X003240Y010180D01*
X003240Y010362D01*
X003498Y010620D01*
X003680Y010620D01*
X003680Y010180D01*
X003240Y010180D01*
X003240Y009998D01*
X003498Y009740D01*
X003680Y009740D01*
X003680Y009849D02*
X003680Y009849D01*
X003680Y010007D02*
X003680Y010007D01*
X003680Y010166D02*
X003680Y010166D01*
X003680Y010324D02*
X003680Y010324D01*
X003680Y010483D02*
X003680Y010483D01*
X004000Y010483D02*
X008332Y010483D01*
X008380Y010641D02*
X000660Y010641D01*
X000660Y010483D02*
X003360Y010483D01*
X003240Y010324D02*
X000660Y010324D01*
X000660Y010166D02*
X003240Y010166D01*
X003240Y010007D02*
X000660Y010007D01*
X000660Y009849D02*
X003389Y009849D01*
X004120Y010007D02*
X008220Y010007D01*
X008220Y010166D02*
X004120Y010166D01*
X004120Y010324D02*
X008220Y010324D01*
X008380Y010800D02*
X000660Y010800D01*
X000660Y010958D02*
X008380Y010958D01*
X008380Y011117D02*
X000660Y011117D01*
X000660Y011275D02*
X008380Y011275D01*
X008380Y011434D02*
X000660Y011434D01*
X000660Y011592D02*
X008380Y011592D01*
X008380Y011751D02*
X000660Y011751D01*
X000660Y011909D02*
X008380Y011909D01*
X008380Y012068D02*
X000660Y012068D01*
X000660Y012226D02*
X008380Y012226D01*
X008325Y012385D02*
X005007Y012385D01*
X005120Y012498D02*
X004862Y012240D01*
X004680Y012240D01*
X004680Y012680D01*
X005120Y012680D01*
X005120Y012862D01*
X004862Y013120D01*
X004680Y013120D01*
X004680Y012680D01*
X004680Y012680D01*
X004680Y012680D01*
X005120Y012680D01*
X005120Y012498D01*
X005120Y012543D02*
X008239Y012543D01*
X008220Y012702D02*
X005120Y012702D01*
X005120Y012860D02*
X008257Y012860D01*
X008368Y013019D02*
X004964Y013019D01*
X004680Y013019D02*
X004680Y013019D01*
X004680Y013120D02*
X004498Y013120D01*
X004240Y012862D01*
X004240Y012680D01*
X004680Y012680D01*
X004680Y012680D01*
X004680Y012680D01*
X004680Y013120D01*
X004680Y012860D02*
X004680Y012860D01*
X004680Y012702D02*
X004680Y012702D01*
X004680Y012680D02*
X004240Y012680D01*
X004240Y012498D01*
X004498Y012240D01*
X004680Y012240D01*
X004680Y012680D01*
X004680Y012543D02*
X004680Y012543D01*
X004680Y012385D02*
X004680Y012385D01*
X004353Y012385D02*
X000660Y012385D01*
X000660Y012543D02*
X004240Y012543D01*
X004240Y012702D02*
X000660Y012702D01*
X000660Y012860D02*
X004240Y012860D01*
X004396Y013019D02*
X000660Y013019D01*
X008992Y013019D02*
X009608Y013019D01*
X009436Y012860D02*
X009103Y012860D01*
X009140Y012702D02*
X009277Y012702D01*
X009656Y014128D02*
X009800Y014128D01*
X009668Y014287D02*
X009498Y014287D01*
X009519Y014445D02*
X009339Y014445D01*
X009460Y014604D02*
X009181Y014604D01*
X009157Y014762D02*
X009460Y014762D01*
X009522Y014921D02*
X009141Y014921D01*
X009062Y015079D02*
X009681Y015079D01*
X009698Y015238D02*
X009019Y015238D01*
X009123Y015396D02*
X009540Y015396D01*
X009381Y015555D02*
X009157Y015555D01*
X009139Y015713D02*
X009223Y015713D01*
X009130Y007947D02*
X009536Y007947D01*
X009364Y007788D02*
X009157Y007788D01*
X009155Y007630D02*
X009205Y007630D01*
D18*
X009180Y007180D02*
X008680Y007680D01*
X008680Y007786D01*
X009180Y007180D02*
X009680Y007680D01*
X010180Y007680D01*
X010180Y008680D02*
X009680Y008680D01*
X009180Y009180D01*
X008680Y008680D01*
X008680Y008574D01*
X008680Y010180D02*
X008680Y011680D01*
X009680Y012680D01*
X010180Y012680D01*
X010180Y013680D02*
X009680Y013680D01*
X008680Y014680D01*
X008680Y014786D01*
X008680Y015574D02*
X008680Y015680D01*
X009180Y016180D01*
X010180Y015180D01*
X010180Y014680D01*
X008680Y012680D02*
X008680Y011680D01*
X013180Y012680D02*
X014180Y012680D01*
X014430Y012574D01*
X015180Y012680D02*
X015180Y011180D01*
X014180Y010180D01*
X014680Y010180D01*
X015180Y009680D01*
X014180Y010180D02*
X013680Y009680D01*
X013180Y009680D01*
X013180Y008680D02*
X015180Y008680D01*
X016680Y010180D01*
X016680Y015180D01*
X016680Y016180D02*
X016180Y016180D01*
X013680Y013680D01*
X013180Y013680D01*
X013180Y007680D02*
X013180Y004180D01*
X015680Y006680D01*
X013180Y004180D02*
X013180Y003680D01*
X011180Y003680D02*
X007180Y003680D01*
M02*
