G75*
%MOIN*%
%OFA0B0*%
%FSLAX24Y24*%
%IPPOS*%
%LPD*%
%AMOC8*
5,1,8,0,0,1.08239X$1,22.5*
%
%ADD10C,0.0474*%
%ADD11C,0.0600*%
%ADD12C,0.0674*%
%ADD13OC8,0.0600*%
%ADD14C,0.0600*%
%ADD15C,0.1080*%
%ADD16OC8,0.1080*%
%ADD17C,0.0634*%
D10*
X001680Y001680D03*
X001680Y016180D03*
X023180Y016180D03*
X023680Y001680D03*
D11*
X013440Y007680D02*
X012920Y007680D01*
X012920Y008680D02*
X013440Y008680D01*
X013440Y009680D02*
X012920Y009680D01*
X012920Y010680D02*
X013440Y010680D01*
X013440Y011680D02*
X012920Y011680D01*
X012920Y012680D02*
X013440Y012680D01*
X013440Y013680D02*
X012920Y013680D01*
X012920Y014680D02*
X013440Y014680D01*
X010440Y014680D02*
X009920Y014680D01*
X009920Y013680D02*
X010440Y013680D01*
X010440Y012680D02*
X009920Y012680D01*
X009920Y011680D02*
X010440Y011680D01*
X010440Y010680D02*
X009920Y010680D01*
X009920Y009680D02*
X010440Y009680D01*
X010440Y008680D02*
X009920Y008680D01*
X009920Y007680D02*
X010440Y007680D01*
D12*
X015383Y007680D02*
X015977Y007680D01*
X015977Y006680D02*
X015383Y006680D01*
X016383Y015180D02*
X016977Y015180D01*
X016977Y016180D02*
X016383Y016180D01*
D13*
X015180Y012680D03*
X015180Y011180D03*
X015180Y009680D03*
X019180Y009680D03*
X019180Y011180D03*
X019180Y012680D03*
X008680Y010180D03*
X004680Y012680D03*
X003680Y010180D03*
D14*
X008680Y012680D03*
D15*
X007180Y003680D03*
X013180Y003680D03*
D16*
X011180Y003680D03*
X005180Y003680D03*
D17*
X008680Y007786D03*
X008680Y008574D03*
X014430Y011786D03*
X014430Y012574D03*
X008680Y014786D03*
X008680Y015574D03*
M02*
