G75*
%MOIN*%
%OFA0B0*%
%FSLAX24Y24*%
%IPPOS*%
%LPD*%
%AMOC8*
5,1,8,0,0,1.08239X$1,22.5*
%
%ADD10C,0.0000*%
%ADD11C,0.0060*%
%ADD12C,0.0050*%
%ADD13C,0.0100*%
%ADD14C,0.0040*%
%ADD15R,0.0340X0.0240*%
%ADD16C,0.0240*%
%ADD17R,0.0200X0.0900*%
%ADD18C,0.0070*%
%ADD19R,0.0250X0.1000*%
%ADD20C,0.0080*%
%ADD21C,0.0010*%
D10*
X000180Y000180D02*
X000180Y017897D01*
X025239Y017897D01*
X025239Y000180D01*
X000180Y000180D01*
X001483Y001680D02*
X001485Y001707D01*
X001491Y001734D01*
X001500Y001760D01*
X001513Y001784D01*
X001529Y001807D01*
X001548Y001826D01*
X001570Y001843D01*
X001594Y001857D01*
X001619Y001867D01*
X001646Y001874D01*
X001673Y001877D01*
X001701Y001876D01*
X001728Y001871D01*
X001754Y001863D01*
X001778Y001851D01*
X001801Y001835D01*
X001822Y001817D01*
X001839Y001796D01*
X001854Y001772D01*
X001865Y001747D01*
X001873Y001721D01*
X001877Y001694D01*
X001877Y001666D01*
X001873Y001639D01*
X001865Y001613D01*
X001854Y001588D01*
X001839Y001564D01*
X001822Y001543D01*
X001801Y001525D01*
X001779Y001509D01*
X001754Y001497D01*
X001728Y001489D01*
X001701Y001484D01*
X001673Y001483D01*
X001646Y001486D01*
X001619Y001493D01*
X001594Y001503D01*
X001570Y001517D01*
X001548Y001534D01*
X001529Y001553D01*
X001513Y001576D01*
X001500Y001600D01*
X001491Y001626D01*
X001485Y001653D01*
X001483Y001680D01*
X001483Y016180D02*
X001485Y016207D01*
X001491Y016234D01*
X001500Y016260D01*
X001513Y016284D01*
X001529Y016307D01*
X001548Y016326D01*
X001570Y016343D01*
X001594Y016357D01*
X001619Y016367D01*
X001646Y016374D01*
X001673Y016377D01*
X001701Y016376D01*
X001728Y016371D01*
X001754Y016363D01*
X001778Y016351D01*
X001801Y016335D01*
X001822Y016317D01*
X001839Y016296D01*
X001854Y016272D01*
X001865Y016247D01*
X001873Y016221D01*
X001877Y016194D01*
X001877Y016166D01*
X001873Y016139D01*
X001865Y016113D01*
X001854Y016088D01*
X001839Y016064D01*
X001822Y016043D01*
X001801Y016025D01*
X001779Y016009D01*
X001754Y015997D01*
X001728Y015989D01*
X001701Y015984D01*
X001673Y015983D01*
X001646Y015986D01*
X001619Y015993D01*
X001594Y016003D01*
X001570Y016017D01*
X001548Y016034D01*
X001529Y016053D01*
X001513Y016076D01*
X001500Y016100D01*
X001491Y016126D01*
X001485Y016153D01*
X001483Y016180D01*
X022983Y016180D02*
X022985Y016207D01*
X022991Y016234D01*
X023000Y016260D01*
X023013Y016284D01*
X023029Y016307D01*
X023048Y016326D01*
X023070Y016343D01*
X023094Y016357D01*
X023119Y016367D01*
X023146Y016374D01*
X023173Y016377D01*
X023201Y016376D01*
X023228Y016371D01*
X023254Y016363D01*
X023278Y016351D01*
X023301Y016335D01*
X023322Y016317D01*
X023339Y016296D01*
X023354Y016272D01*
X023365Y016247D01*
X023373Y016221D01*
X023377Y016194D01*
X023377Y016166D01*
X023373Y016139D01*
X023365Y016113D01*
X023354Y016088D01*
X023339Y016064D01*
X023322Y016043D01*
X023301Y016025D01*
X023279Y016009D01*
X023254Y015997D01*
X023228Y015989D01*
X023201Y015984D01*
X023173Y015983D01*
X023146Y015986D01*
X023119Y015993D01*
X023094Y016003D01*
X023070Y016017D01*
X023048Y016034D01*
X023029Y016053D01*
X023013Y016076D01*
X023000Y016100D01*
X022991Y016126D01*
X022985Y016153D01*
X022983Y016180D01*
X023483Y001680D02*
X023485Y001707D01*
X023491Y001734D01*
X023500Y001760D01*
X023513Y001784D01*
X023529Y001807D01*
X023548Y001826D01*
X023570Y001843D01*
X023594Y001857D01*
X023619Y001867D01*
X023646Y001874D01*
X023673Y001877D01*
X023701Y001876D01*
X023728Y001871D01*
X023754Y001863D01*
X023778Y001851D01*
X023801Y001835D01*
X023822Y001817D01*
X023839Y001796D01*
X023854Y001772D01*
X023865Y001747D01*
X023873Y001721D01*
X023877Y001694D01*
X023877Y001666D01*
X023873Y001639D01*
X023865Y001613D01*
X023854Y001588D01*
X023839Y001564D01*
X023822Y001543D01*
X023801Y001525D01*
X023779Y001509D01*
X023754Y001497D01*
X023728Y001489D01*
X023701Y001484D01*
X023673Y001483D01*
X023646Y001486D01*
X023619Y001493D01*
X023594Y001503D01*
X023570Y001517D01*
X023548Y001534D01*
X023529Y001553D01*
X023513Y001576D01*
X023500Y001600D01*
X023491Y001626D01*
X023485Y001653D01*
X023483Y001680D01*
D11*
X014430Y003680D02*
X013930Y003680D01*
X014180Y003930D02*
X014180Y003430D01*
X012630Y003680D02*
X012530Y003680D01*
X012530Y003180D01*
X012280Y003180D01*
X012280Y004180D01*
X012530Y004180D01*
X012530Y003680D01*
X009430Y003680D02*
X009432Y003785D01*
X009438Y003889D01*
X009448Y003993D01*
X009462Y004097D01*
X009480Y004200D01*
X009501Y004303D01*
X009527Y004404D01*
X009557Y004505D01*
X009590Y004604D01*
X009627Y004702D01*
X009668Y004799D01*
X009712Y004893D01*
X009760Y004986D01*
X009812Y005078D01*
X009867Y005167D01*
X009925Y005254D01*
X009986Y005338D01*
X010051Y005421D01*
X010119Y005501D01*
X010190Y005578D01*
X010263Y005652D01*
X010340Y005724D01*
X010419Y005792D01*
X010501Y005858D01*
X010585Y005920D01*
X010671Y005979D01*
X010760Y006035D01*
X010851Y006087D01*
X010943Y006136D01*
X011038Y006181D01*
X011134Y006223D01*
X011231Y006261D01*
X011330Y006295D01*
X011430Y006326D01*
X011532Y006352D01*
X011634Y006375D01*
X011737Y006394D01*
X011841Y006409D01*
X011945Y006420D01*
X012049Y006427D01*
X012154Y006430D01*
X012259Y006429D01*
X012363Y006424D01*
X012467Y006415D01*
X012571Y006402D01*
X012675Y006385D01*
X012777Y006364D01*
X012879Y006340D01*
X012980Y006311D01*
X013079Y006279D01*
X013178Y006243D01*
X013275Y006203D01*
X013370Y006159D01*
X013463Y006112D01*
X013555Y006062D01*
X013645Y006007D01*
X013732Y005950D01*
X013818Y005889D01*
X013900Y005825D01*
X013981Y005758D01*
X014059Y005688D01*
X014134Y005615D01*
X014206Y005539D01*
X014275Y005461D01*
X014342Y005380D01*
X014405Y005296D01*
X014465Y005211D01*
X014521Y005122D01*
X014575Y005032D01*
X014624Y004940D01*
X014670Y004846D01*
X014713Y004750D01*
X014752Y004653D01*
X014787Y004555D01*
X014819Y004455D01*
X014846Y004354D01*
X014870Y004252D01*
X014890Y004149D01*
X014906Y004045D01*
X014918Y003941D01*
X014926Y003837D01*
X014930Y003732D01*
X014930Y003628D01*
X014926Y003523D01*
X014918Y003419D01*
X014906Y003315D01*
X014890Y003211D01*
X014870Y003108D01*
X014846Y003006D01*
X014819Y002905D01*
X014787Y002805D01*
X014752Y002707D01*
X014713Y002610D01*
X014670Y002514D01*
X014624Y002420D01*
X014575Y002328D01*
X014521Y002238D01*
X014465Y002149D01*
X014405Y002064D01*
X014342Y001980D01*
X014275Y001899D01*
X014206Y001821D01*
X014134Y001745D01*
X014059Y001672D01*
X013981Y001602D01*
X013900Y001535D01*
X013818Y001471D01*
X013732Y001410D01*
X013645Y001353D01*
X013555Y001298D01*
X013463Y001248D01*
X013370Y001201D01*
X013275Y001157D01*
X013178Y001117D01*
X013079Y001081D01*
X012980Y001049D01*
X012879Y001020D01*
X012777Y000996D01*
X012675Y000975D01*
X012571Y000958D01*
X012467Y000945D01*
X012363Y000936D01*
X012259Y000931D01*
X012154Y000930D01*
X012049Y000933D01*
X011945Y000940D01*
X011841Y000951D01*
X011737Y000966D01*
X011634Y000985D01*
X011532Y001008D01*
X011430Y001034D01*
X011330Y001065D01*
X011231Y001099D01*
X011134Y001137D01*
X011038Y001179D01*
X010943Y001224D01*
X010851Y001273D01*
X010760Y001325D01*
X010671Y001381D01*
X010585Y001440D01*
X010501Y001502D01*
X010419Y001568D01*
X010340Y001636D01*
X010263Y001708D01*
X010190Y001782D01*
X010119Y001859D01*
X010051Y001939D01*
X009986Y002022D01*
X009925Y002106D01*
X009867Y002193D01*
X009812Y002282D01*
X009760Y002374D01*
X009712Y002467D01*
X009668Y002561D01*
X009627Y002658D01*
X009590Y002756D01*
X009557Y002855D01*
X009527Y002956D01*
X009501Y003057D01*
X009480Y003160D01*
X009462Y003263D01*
X009448Y003367D01*
X009438Y003471D01*
X009432Y003575D01*
X009430Y003680D01*
X008430Y003680D02*
X007930Y003680D01*
X008180Y003930D02*
X008180Y003430D01*
X006630Y003680D02*
X006530Y003680D01*
X006530Y003180D01*
X006280Y003180D01*
X006280Y004180D01*
X006530Y004180D01*
X006530Y003680D01*
X003430Y003680D02*
X003432Y003785D01*
X003438Y003889D01*
X003448Y003993D01*
X003462Y004097D01*
X003480Y004200D01*
X003501Y004303D01*
X003527Y004404D01*
X003557Y004505D01*
X003590Y004604D01*
X003627Y004702D01*
X003668Y004799D01*
X003712Y004893D01*
X003760Y004986D01*
X003812Y005078D01*
X003867Y005167D01*
X003925Y005254D01*
X003986Y005338D01*
X004051Y005421D01*
X004119Y005501D01*
X004190Y005578D01*
X004263Y005652D01*
X004340Y005724D01*
X004419Y005792D01*
X004501Y005858D01*
X004585Y005920D01*
X004671Y005979D01*
X004760Y006035D01*
X004851Y006087D01*
X004943Y006136D01*
X005038Y006181D01*
X005134Y006223D01*
X005231Y006261D01*
X005330Y006295D01*
X005430Y006326D01*
X005532Y006352D01*
X005634Y006375D01*
X005737Y006394D01*
X005841Y006409D01*
X005945Y006420D01*
X006049Y006427D01*
X006154Y006430D01*
X006259Y006429D01*
X006363Y006424D01*
X006467Y006415D01*
X006571Y006402D01*
X006675Y006385D01*
X006777Y006364D01*
X006879Y006340D01*
X006980Y006311D01*
X007079Y006279D01*
X007178Y006243D01*
X007275Y006203D01*
X007370Y006159D01*
X007463Y006112D01*
X007555Y006062D01*
X007645Y006007D01*
X007732Y005950D01*
X007818Y005889D01*
X007900Y005825D01*
X007981Y005758D01*
X008059Y005688D01*
X008134Y005615D01*
X008206Y005539D01*
X008275Y005461D01*
X008342Y005380D01*
X008405Y005296D01*
X008465Y005211D01*
X008521Y005122D01*
X008575Y005032D01*
X008624Y004940D01*
X008670Y004846D01*
X008713Y004750D01*
X008752Y004653D01*
X008787Y004555D01*
X008819Y004455D01*
X008846Y004354D01*
X008870Y004252D01*
X008890Y004149D01*
X008906Y004045D01*
X008918Y003941D01*
X008926Y003837D01*
X008930Y003732D01*
X008930Y003628D01*
X008926Y003523D01*
X008918Y003419D01*
X008906Y003315D01*
X008890Y003211D01*
X008870Y003108D01*
X008846Y003006D01*
X008819Y002905D01*
X008787Y002805D01*
X008752Y002707D01*
X008713Y002610D01*
X008670Y002514D01*
X008624Y002420D01*
X008575Y002328D01*
X008521Y002238D01*
X008465Y002149D01*
X008405Y002064D01*
X008342Y001980D01*
X008275Y001899D01*
X008206Y001821D01*
X008134Y001745D01*
X008059Y001672D01*
X007981Y001602D01*
X007900Y001535D01*
X007818Y001471D01*
X007732Y001410D01*
X007645Y001353D01*
X007555Y001298D01*
X007463Y001248D01*
X007370Y001201D01*
X007275Y001157D01*
X007178Y001117D01*
X007079Y001081D01*
X006980Y001049D01*
X006879Y001020D01*
X006777Y000996D01*
X006675Y000975D01*
X006571Y000958D01*
X006467Y000945D01*
X006363Y000936D01*
X006259Y000931D01*
X006154Y000930D01*
X006049Y000933D01*
X005945Y000940D01*
X005841Y000951D01*
X005737Y000966D01*
X005634Y000985D01*
X005532Y001008D01*
X005430Y001034D01*
X005330Y001065D01*
X005231Y001099D01*
X005134Y001137D01*
X005038Y001179D01*
X004943Y001224D01*
X004851Y001273D01*
X004760Y001325D01*
X004671Y001381D01*
X004585Y001440D01*
X004501Y001502D01*
X004419Y001568D01*
X004340Y001636D01*
X004263Y001708D01*
X004190Y001782D01*
X004119Y001859D01*
X004051Y001939D01*
X003986Y002022D01*
X003925Y002106D01*
X003867Y002193D01*
X003812Y002282D01*
X003760Y002374D01*
X003712Y002467D01*
X003668Y002561D01*
X003627Y002658D01*
X003590Y002756D01*
X003557Y002855D01*
X003527Y002956D01*
X003501Y003057D01*
X003480Y003160D01*
X003462Y003263D01*
X003448Y003367D01*
X003438Y003471D01*
X003432Y003575D01*
X003430Y003680D01*
X005730Y003680D02*
X005930Y003680D01*
X010530Y007180D02*
X012830Y007180D01*
X012830Y015180D01*
X012080Y015180D01*
X012078Y015141D01*
X012072Y015102D01*
X012063Y015064D01*
X012050Y015027D01*
X012033Y014991D01*
X012013Y014958D01*
X011989Y014926D01*
X011963Y014897D01*
X011934Y014871D01*
X011902Y014847D01*
X011869Y014827D01*
X011833Y014810D01*
X011796Y014797D01*
X011758Y014788D01*
X011719Y014782D01*
X011680Y014780D01*
X011641Y014782D01*
X011602Y014788D01*
X011564Y014797D01*
X011527Y014810D01*
X011491Y014827D01*
X011458Y014847D01*
X011426Y014871D01*
X011397Y014897D01*
X011371Y014926D01*
X011347Y014958D01*
X011327Y014991D01*
X011310Y015027D01*
X011297Y015064D01*
X011288Y015102D01*
X011282Y015141D01*
X011280Y015180D01*
X010530Y015180D01*
X010530Y007180D01*
X007330Y009730D02*
X007180Y009730D01*
X007130Y009780D01*
X005230Y009780D01*
X005180Y009730D01*
X005030Y009730D01*
X005013Y009732D01*
X004996Y009736D01*
X004980Y009743D01*
X004966Y009753D01*
X004953Y009766D01*
X004943Y009780D01*
X004936Y009796D01*
X004932Y009813D01*
X004930Y009830D01*
X004930Y010530D01*
X004932Y010547D01*
X004936Y010564D01*
X004943Y010580D01*
X004953Y010594D01*
X004966Y010607D01*
X004980Y010617D01*
X004996Y010624D01*
X005013Y010628D01*
X005030Y010630D01*
X005180Y010630D01*
X005230Y010580D01*
X007130Y010580D01*
X007180Y010630D01*
X007330Y010630D01*
X007347Y010628D01*
X007364Y010624D01*
X007380Y010617D01*
X007394Y010607D01*
X007407Y010594D01*
X007417Y010580D01*
X007424Y010564D01*
X007428Y010547D01*
X007430Y010530D01*
X007430Y009830D01*
X007428Y009813D01*
X007424Y009796D01*
X007417Y009780D01*
X007407Y009766D01*
X007394Y009753D01*
X007380Y009743D01*
X007364Y009736D01*
X007347Y009732D01*
X007330Y009730D01*
X008980Y011180D02*
X008980Y012080D01*
X009280Y012080D01*
X009280Y013280D01*
X008980Y013280D01*
X008980Y014180D01*
X004380Y014180D01*
X004380Y012980D01*
X004380Y012380D02*
X004380Y011180D01*
X008980Y011180D01*
X007450Y012430D02*
X007200Y012430D01*
X007330Y012550D02*
X007330Y012300D01*
X006980Y012250D02*
X006980Y012680D01*
X006980Y013110D01*
X006780Y013110D01*
X006780Y012250D01*
X006980Y012250D01*
X006980Y012680D02*
X008130Y012680D01*
X006480Y012680D02*
X005230Y012680D01*
X015930Y012330D02*
X015930Y013030D01*
X015932Y013047D01*
X015936Y013064D01*
X015943Y013080D01*
X015953Y013094D01*
X015966Y013107D01*
X015980Y013117D01*
X015996Y013124D01*
X016013Y013128D01*
X016030Y013130D01*
X016180Y013130D01*
X016230Y013080D01*
X018130Y013080D01*
X018180Y013130D01*
X018330Y013130D01*
X018347Y013128D01*
X018364Y013124D01*
X018380Y013117D01*
X018394Y013107D01*
X018407Y013094D01*
X018417Y013080D01*
X018424Y013064D01*
X018428Y013047D01*
X018430Y013030D01*
X018430Y012330D01*
X018428Y012313D01*
X018424Y012296D01*
X018417Y012280D01*
X018407Y012266D01*
X018394Y012253D01*
X018380Y012243D01*
X018364Y012236D01*
X018347Y012232D01*
X018330Y012230D01*
X018180Y012230D01*
X018130Y012280D01*
X016230Y012280D01*
X016180Y012230D01*
X016030Y012230D01*
X016013Y012232D01*
X015996Y012236D01*
X015980Y012243D01*
X015966Y012253D01*
X015953Y012266D01*
X015943Y012280D01*
X015936Y012296D01*
X015932Y012313D01*
X015930Y012330D01*
X016030Y011630D02*
X016180Y011630D01*
X016230Y011580D01*
X018130Y011580D01*
X018180Y011630D01*
X018330Y011630D01*
X018347Y011628D01*
X018364Y011624D01*
X018380Y011617D01*
X018394Y011607D01*
X018407Y011594D01*
X018417Y011580D01*
X018424Y011564D01*
X018428Y011547D01*
X018430Y011530D01*
X018430Y010830D01*
X018428Y010813D01*
X018424Y010796D01*
X018417Y010780D01*
X018407Y010766D01*
X018394Y010753D01*
X018380Y010743D01*
X018364Y010736D01*
X018347Y010732D01*
X018330Y010730D01*
X018180Y010730D01*
X018130Y010780D01*
X016230Y010780D01*
X016180Y010730D01*
X016030Y010730D01*
X016013Y010732D01*
X015996Y010736D01*
X015980Y010743D01*
X015966Y010753D01*
X015953Y010766D01*
X015943Y010780D01*
X015936Y010796D01*
X015932Y010813D01*
X015930Y010830D01*
X015930Y011530D01*
X015932Y011547D01*
X015936Y011564D01*
X015943Y011580D01*
X015953Y011594D01*
X015966Y011607D01*
X015980Y011617D01*
X015996Y011624D01*
X016013Y011628D01*
X016030Y011630D01*
X016030Y010130D02*
X016180Y010130D01*
X016230Y010080D01*
X018130Y010080D01*
X018180Y010130D01*
X018330Y010130D01*
X018347Y010128D01*
X018364Y010124D01*
X018380Y010117D01*
X018394Y010107D01*
X018407Y010094D01*
X018417Y010080D01*
X018424Y010064D01*
X018428Y010047D01*
X018430Y010030D01*
X018430Y009330D01*
X018428Y009313D01*
X018424Y009296D01*
X018417Y009280D01*
X018407Y009266D01*
X018394Y009253D01*
X018380Y009243D01*
X018364Y009236D01*
X018347Y009232D01*
X018330Y009230D01*
X018180Y009230D01*
X018130Y009280D01*
X016230Y009280D01*
X016180Y009230D01*
X016030Y009230D01*
X016013Y009232D01*
X015996Y009236D01*
X015980Y009243D01*
X015966Y009253D01*
X015953Y009266D01*
X015943Y009280D01*
X015936Y009296D01*
X015932Y009313D01*
X015930Y009330D01*
X015930Y010030D01*
X015932Y010047D01*
X015936Y010064D01*
X015943Y010080D01*
X015953Y010094D01*
X015966Y010107D01*
X015980Y010117D01*
X015996Y010124D01*
X016013Y010128D01*
X016030Y010130D01*
X011930Y003680D02*
X011730Y003680D01*
D12*
X007295Y009155D02*
X006995Y009155D01*
X007295Y009455D01*
X007295Y009530D01*
X007220Y009605D01*
X007070Y009605D01*
X006995Y009530D01*
X006834Y009530D02*
X006834Y009380D01*
X006759Y009305D01*
X006534Y009305D01*
X006534Y009155D02*
X006534Y009605D01*
X006759Y009605D01*
X006834Y009530D01*
X006684Y009305D02*
X006834Y009155D01*
X008159Y010605D02*
X008084Y010680D01*
X008084Y010980D01*
X008159Y011055D01*
X008309Y011055D01*
X008384Y010980D01*
X008545Y010905D02*
X008695Y011055D01*
X008695Y010605D01*
X008545Y010605D02*
X008845Y010605D01*
X008384Y010680D02*
X008309Y010605D01*
X008159Y010605D01*
X010555Y015355D02*
X010705Y015355D01*
X010630Y015355D02*
X010630Y015805D01*
X010555Y015805D02*
X010705Y015805D01*
X010862Y015730D02*
X010862Y015430D01*
X010937Y015355D01*
X011087Y015355D01*
X011162Y015430D01*
X011322Y015355D02*
X011623Y015355D01*
X011472Y015355D02*
X011472Y015805D01*
X011322Y015655D01*
X011162Y015730D02*
X011087Y015805D01*
X010937Y015805D01*
X010862Y015730D01*
X016005Y013755D02*
X016005Y013305D01*
X016005Y013455D02*
X016230Y013455D01*
X016305Y013530D01*
X016305Y013680D01*
X016230Y013755D01*
X016005Y013755D01*
X016155Y013455D02*
X016305Y013305D01*
X016465Y013530D02*
X016766Y013530D01*
X016691Y013305D02*
X016691Y013755D01*
X016465Y013530D01*
X016540Y012255D02*
X016465Y012180D01*
X016540Y012255D02*
X016691Y012255D01*
X016766Y012180D01*
X016766Y012105D01*
X016691Y012030D01*
X016766Y011955D01*
X016766Y011880D01*
X016691Y011805D01*
X016540Y011805D01*
X016465Y011880D01*
X016305Y011805D02*
X016155Y011955D01*
X016230Y011955D02*
X016005Y011955D01*
X016005Y011805D02*
X016005Y012255D01*
X016230Y012255D01*
X016305Y012180D01*
X016305Y012030D01*
X016230Y011955D01*
X016616Y012030D02*
X016691Y012030D01*
X016616Y010755D02*
X016616Y010305D01*
X016766Y010305D02*
X016465Y010305D01*
X016305Y010305D02*
X016155Y010455D01*
X016230Y010455D02*
X016005Y010455D01*
X016005Y010305D02*
X016005Y010755D01*
X016230Y010755D01*
X016305Y010680D01*
X016305Y010530D01*
X016230Y010455D01*
X016465Y010605D02*
X016616Y010755D01*
D13*
X016930Y008180D02*
X015180Y008180D01*
X015180Y006180D01*
X014430Y006180D01*
X014430Y008180D01*
X015180Y008180D01*
X016930Y008180D02*
X016930Y006180D01*
X015180Y006180D01*
X015430Y014680D02*
X016180Y014680D01*
X016180Y016680D01*
X017930Y016680D01*
X017930Y014680D01*
X016180Y014680D01*
X015430Y014680D02*
X015430Y016680D01*
X016180Y016680D01*
D14*
X015160Y015309D02*
X015160Y015068D01*
X015160Y015188D02*
X014800Y015188D01*
X014920Y015068D01*
X014800Y014940D02*
X015160Y014700D01*
X015160Y014940D02*
X014800Y014700D01*
X014743Y011160D02*
X014666Y011084D01*
X014743Y011160D02*
X014896Y011160D01*
X014973Y011084D01*
X014973Y011007D01*
X014896Y010930D01*
X014973Y010853D01*
X014973Y010777D01*
X014896Y010700D01*
X014743Y010700D01*
X014666Y010777D01*
X014513Y010700D02*
X014206Y011160D01*
X014513Y011160D02*
X014206Y010700D01*
X014820Y010930D02*
X014896Y010930D01*
X009223Y007160D02*
X008916Y007160D01*
X008916Y006930D01*
X009070Y007007D01*
X009146Y007007D01*
X009223Y006930D01*
X009223Y006777D01*
X009146Y006700D01*
X008993Y006700D01*
X008916Y006777D01*
X008763Y006700D02*
X008456Y007160D01*
X008763Y007160D02*
X008456Y006700D01*
X013800Y006748D02*
X013800Y006628D01*
X013860Y006568D01*
X013800Y006440D02*
X014160Y006200D01*
X014160Y006440D02*
X013800Y006200D01*
X014160Y006568D02*
X013920Y006809D01*
X013860Y006809D01*
X013800Y006748D01*
X014160Y006809D02*
X014160Y006568D01*
X008714Y016200D02*
X008714Y016660D01*
X008484Y016430D01*
X008791Y016430D01*
X008330Y016200D02*
X008023Y016660D01*
X008330Y016660D02*
X008023Y016200D01*
D15*
X015760Y012680D03*
X015760Y011180D03*
X015760Y009680D03*
X018600Y009680D03*
X018600Y011180D03*
X018600Y012680D03*
X008100Y010180D03*
X007600Y010180D03*
X004760Y010180D03*
X004260Y010180D03*
D16*
X004430Y010180D02*
X004580Y010180D01*
X007780Y010180D02*
X007930Y010180D01*
D17*
X006480Y012680D03*
D18*
X008521Y002026D02*
X008416Y001920D01*
X008416Y001500D01*
X008521Y001395D01*
X008731Y001395D01*
X008836Y001500D01*
X009060Y001395D02*
X009481Y001815D01*
X009481Y001920D01*
X009376Y002026D01*
X009166Y002026D01*
X009060Y001920D01*
X008836Y001920D02*
X008731Y002026D01*
X008521Y002026D01*
X009060Y001395D02*
X009481Y001395D01*
X003481Y001500D02*
X003376Y001395D01*
X003166Y001395D01*
X003060Y001500D01*
X002836Y001500D02*
X002731Y001395D01*
X002521Y001395D01*
X002416Y001500D01*
X002416Y001920D01*
X002521Y002026D01*
X002731Y002026D01*
X002836Y001920D01*
X003060Y001920D02*
X003166Y002026D01*
X003376Y002026D01*
X003481Y001920D01*
X003481Y001815D01*
X003376Y001710D01*
X003481Y001605D01*
X003481Y001500D01*
X003376Y001710D02*
X003271Y001710D01*
D19*
X005955Y003680D03*
X011955Y003680D03*
D20*
X009015Y007432D02*
X008345Y007432D01*
X008345Y008023D01*
X008346Y008023D02*
X008367Y008035D01*
X008386Y008050D01*
X008404Y008067D01*
X008418Y008087D01*
X008430Y008109D01*
X008438Y008132D01*
X008443Y008156D01*
X008445Y008180D01*
X008443Y008204D01*
X008438Y008228D01*
X008430Y008251D01*
X008418Y008273D01*
X008404Y008293D01*
X008386Y008310D01*
X008367Y008325D01*
X008346Y008337D01*
X008345Y008337D02*
X008345Y008928D01*
X009015Y008928D01*
X009015Y008337D01*
X009014Y008337D02*
X008993Y008325D01*
X008974Y008310D01*
X008956Y008293D01*
X008942Y008273D01*
X008930Y008251D01*
X008922Y008228D01*
X008917Y008204D01*
X008915Y008180D01*
X008917Y008156D01*
X008922Y008132D01*
X008930Y008109D01*
X008942Y008087D01*
X008956Y008067D01*
X008974Y008050D01*
X008993Y008035D01*
X009014Y008023D01*
X009015Y008023D02*
X009015Y007432D01*
X014095Y011432D02*
X014095Y012023D01*
X014096Y012023D02*
X014117Y012035D01*
X014136Y012050D01*
X014154Y012067D01*
X014168Y012087D01*
X014180Y012109D01*
X014188Y012132D01*
X014193Y012156D01*
X014195Y012180D01*
X014193Y012204D01*
X014188Y012228D01*
X014180Y012251D01*
X014168Y012273D01*
X014154Y012293D01*
X014136Y012310D01*
X014117Y012325D01*
X014096Y012337D01*
X014095Y012337D02*
X014095Y012928D01*
X014765Y012928D01*
X014765Y012337D01*
X014764Y012337D02*
X014743Y012325D01*
X014724Y012310D01*
X014706Y012293D01*
X014692Y012273D01*
X014680Y012251D01*
X014672Y012228D01*
X014667Y012204D01*
X014665Y012180D01*
X014667Y012156D01*
X014672Y012132D01*
X014680Y012109D01*
X014692Y012087D01*
X014706Y012067D01*
X014724Y012050D01*
X014743Y012035D01*
X014764Y012023D01*
X014765Y012023D02*
X014765Y011432D01*
X014095Y011432D01*
X009015Y014432D02*
X009015Y015023D01*
X009014Y015023D02*
X008993Y015035D01*
X008974Y015050D01*
X008956Y015067D01*
X008942Y015087D01*
X008930Y015109D01*
X008922Y015132D01*
X008917Y015156D01*
X008915Y015180D01*
X008917Y015204D01*
X008922Y015228D01*
X008930Y015251D01*
X008942Y015273D01*
X008956Y015293D01*
X008974Y015310D01*
X008993Y015325D01*
X009014Y015337D01*
X009015Y015337D02*
X009015Y015928D01*
X008345Y015928D01*
X008345Y015337D01*
X008346Y015337D02*
X008367Y015325D01*
X008386Y015310D01*
X008404Y015293D01*
X008418Y015273D01*
X008430Y015251D01*
X008438Y015228D01*
X008443Y015204D01*
X008445Y015180D01*
X008443Y015156D01*
X008438Y015132D01*
X008430Y015109D01*
X008418Y015087D01*
X008404Y015067D01*
X008386Y015050D01*
X008367Y015035D01*
X008346Y015023D01*
X008345Y015023D02*
X008345Y014432D01*
X009015Y014432D01*
D21*
X008904Y015754D02*
X008830Y015754D01*
X008867Y015754D02*
X008867Y015864D01*
X008830Y015827D01*
X014179Y011569D02*
X014216Y011606D01*
X014216Y011496D01*
X014252Y011496D02*
X014179Y011496D01*
X008466Y007606D02*
X008466Y007496D01*
X008502Y007496D02*
X008429Y007496D01*
X008429Y007569D02*
X008466Y007606D01*
M02*
